<svg width="48" height="48" viewBox="0 0 48 48" fill="none" xmlns="http://www.w3.org/2000/svg">
<g clip-path="url(#clip0_847_3494)">
<path d="M31.2213 10.7881V15.0848L23.1852 23.1209C22.7092 23.5809 22.696 24.3393 23.1556 24.8154C23.6155 25.2911 24.3739 25.3043 24.85 24.8447C24.8599 24.8352 24.8698 24.8253 24.8793 24.8154L32.9158 16.7789H37.2122C37.5301 16.7789 37.8347 16.6529 38.0592 16.4281L45.2483 9.23901C45.7163 8.77099 45.7163 8.0122 45.2483 7.54418C45.0235 7.3197 44.7188 7.19372 44.4013 7.19335H40.8069V3.599C40.8065 2.93726 40.27 2.40112 39.6083 2.40112C39.2908 2.40112 38.9861 2.52747 38.7613 2.75195L31.5722 9.94103C31.3477 10.1655 31.2213 10.4706 31.2213 10.7881Z" fill="#B5D75C"/>
<path d="M27.7729 15.1443C22.8975 13.076 17.2689 15.352 15.2005 20.2273C13.1321 25.1027 15.4081 30.7317 20.2835 32.7997C25.1589 34.8681 30.7879 32.5924 32.8559 27.7167C33.8714 25.3235 33.8714 22.6205 32.8559 20.2273L26.5735 26.5097C25.19 27.9335 22.9144 27.9665 21.4905 26.5833C20.0667 25.1997 20.0337 22.9241 21.4169 21.5003C21.4411 21.4754 21.4656 21.4512 21.4905 21.427L27.7729 15.1443Z" fill="#0053CE"/>
<path d="M45.1709 12.7054L41.5857 16.2902C45.8455 26.0043 41.4242 37.3323 31.7101 41.5921C21.9964 45.8518 10.6684 41.4302 6.40828 31.7165C2.14852 22.0024 6.57015 10.6744 16.2842 6.41463C21.2003 4.25875 26.7941 4.25875 31.7101 6.41463L35.2946 2.82906C23.6022 -3.4086 9.06697 1.01303 2.82931 12.7054C-3.40872 24.3974 1.0129 38.933 12.7053 45.171C24.3976 51.4087 38.9329 46.9871 45.1709 35.2947C48.9367 28.2356 48.9367 19.7645 45.1709 12.7054Z" fill="#0053CE"/>
<path d="M28.8248 10.7882C28.8233 9.84114 29.1976 8.93221 29.8659 8.26131C21.1538 5.00204 11.4492 9.4222 8.18954 18.1343C4.93026 26.8465 9.35042 36.5511 18.0626 39.8107C26.7747 43.07 36.4793 38.6498 39.7389 29.9377C41.1628 26.132 41.1628 21.94 39.7389 18.1343C39.068 18.8027 38.1591 19.1773 37.2121 19.1755H34.9983C37.6698 25.2568 34.9061 32.3521 28.8248 35.0236C22.7438 37.6955 15.6481 34.9313 12.9766 28.8504C10.3048 22.7691 13.0689 15.6738 19.1498 13.0019C22.233 11.6477 25.742 11.6477 28.8248 13.0019V10.7882Z" fill="#0053CE"/>
</g>
<defs>
<clipPath id="clip0_847_3494">
<rect width="48" height="48" fill="white"/>
</clipPath>
</defs>
</svg>
