<svg width="48" height="48" viewBox="0 0 48 48" fill="none" xmlns="http://www.w3.org/2000/svg">
<g clip-path="url(#clip0_847_3476)">
<path d="M24.75 6.76875V0.75H23.25V6.76875C23.499 6.75825 23.7488 6.75 24 6.75C24.2513 6.75 24.501 6.75825 24.75 6.76875Z" fill="#0053CE"/>
<path d="M23.25 41.2312V47.25H24.75V41.2312C24.501 41.2417 24.2513 41.25 24 41.25C23.7488 41.25 23.499 41.2417 23.25 41.2312Z" fill="#0053CE"/>
<path d="M41.2502 24C41.2502 24.2513 41.2419 24.501 41.2314 24.75H47.2502V23.25H41.2314C41.2419 23.499 41.2502 23.7488 41.2502 24Z" fill="#0053CE"/>
<path d="M6.76875 23.25H0.75V24.75H6.76875C6.75825 24.501 6.75 24.2513 6.75 24C6.75 23.7488 6.75825 23.499 6.76875 23.25Z" fill="#0053CE"/>
<path d="M2.25 2.25H10.5V0.75H1.5C1.30109 0.75 1.11032 0.829018 0.96967 0.96967C0.829018 1.11032 0.75 1.30109 0.75 1.5V10.5H2.25V2.25Z" fill="#0053CE"/>
<path d="M46.5 0.75H37.5V2.25H45.75V10.5H47.25V1.5C47.25 1.30109 47.171 1.11032 47.0303 0.96967C46.8897 0.829018 46.6989 0.75 46.5 0.75Z" fill="#0053CE"/>
<path d="M2.25 37.5H0.75V46.5C0.75 46.6989 0.829018 46.8897 0.96967 47.0303C1.11032 47.171 1.30109 47.25 1.5 47.25H10.5V45.75H2.25V37.5Z" fill="#0053CE"/>
<path d="M45.75 45.75H37.5V47.25H46.5C46.6989 47.25 46.8897 47.171 47.0303 47.0303C47.171 46.8897 47.25 46.6989 47.25 46.5V37.5H45.75V45.75Z" fill="#0053CE"/>
<path d="M22.5002 22.3229C22.5018 21.9845 22.5573 21.6486 22.6645 21.3276C22.2386 21.5383 21.869 21.8473 21.5862 22.2292C21.3035 22.6111 21.1158 23.0548 21.0387 23.5237C20.9616 23.9925 20.9972 24.473 21.1427 24.9253C21.2882 25.3777 21.5393 25.7888 21.8753 26.1248C22.2113 26.4608 22.6224 26.7119 23.0748 26.8574C23.5271 27.0029 24.0076 27.0385 24.4764 26.9614C24.9453 26.8843 25.389 26.6966 25.7709 26.4139C26.1528 26.1311 26.4618 25.7615 26.6725 25.3356C26.1955 25.4956 25.6873 25.5396 25.19 25.4639C24.6926 25.3883 24.2205 25.1952 23.8126 24.9007C23.4048 24.6062 23.073 24.2188 22.8448 23.7705C22.6165 23.3222 22.4984 22.8259 22.5002 22.3229Z" fill="#0053CE"/>
<path d="M38.2498 23.25H41.2311C41.0383 18.9409 39.24 14.8599 36.19 11.8099C33.1399 8.75984 29.0589 6.96155 24.7498 6.7688V9.75005H23.2498V6.7688C18.9407 6.96155 14.8597 8.75984 11.8096 11.8099C8.75959 14.8599 6.96131 18.9409 6.76855 23.25H9.7498V24.75H6.76855C6.96131 29.0592 8.75959 33.1402 11.8096 36.1902C14.8597 39.2403 18.9407 41.0385 23.2498 41.2313V38.25H24.7498V41.2313C29.0589 41.0385 33.1399 39.2403 36.19 36.1902C39.24 33.1402 41.0383 29.0592 41.2311 24.75H38.2498V23.25ZM35.6661 24.6241L34.3851 25.4776C34.0321 27.9807 32.7869 30.2721 30.8787 31.9301C28.9705 33.5881 26.5277 34.5011 23.9998 34.5011C21.4719 34.5011 19.0291 33.5881 17.1209 31.9301C15.2127 30.2721 13.9675 27.9807 13.6146 25.4776L12.3336 24.6241C12.233 24.557 12.1501 24.4666 12.092 24.3605C12.0339 24.2545 12.0022 24.136 11.9998 24.0151C11.9974 23.8943 12.0242 23.7746 12.078 23.6663C12.1318 23.558 12.211 23.4644 12.3088 23.3933L13.6266 22.4355C13.9984 19.9504 15.2501 17.6814 17.1539 16.0413C19.0577 14.4012 21.487 13.4991 23.9998 13.4991C26.5126 13.4991 28.9419 14.4012 30.8457 16.0413C32.7495 17.6814 34.0012 19.9504 34.3731 22.4355L35.6908 23.3933C35.7886 23.4644 35.8678 23.558 35.9216 23.6663C35.9754 23.7746 36.0022 23.8943 35.9998 24.0151C35.9974 24.136 35.9658 24.2545 35.9076 24.3605C35.8495 24.4666 35.7666 24.557 35.6661 24.6241Z" fill="#B5D75C"/>
<path d="M23.9997 18.75C22.2079 18.7462 20.4615 19.314 19.0145 20.3708L14.0645 23.9708L20.297 28.1258C21.3993 28.8441 22.6866 29.2266 24.0023 29.2266C25.318 29.2266 26.6054 28.8441 27.7077 28.1258L33.941 23.97L28.9857 20.3655C27.5379 19.3102 25.7913 18.7443 23.9997 18.75ZM23.9997 28.5C23.1097 28.5 22.2397 28.2361 21.4996 27.7417C20.7596 27.2472 20.1828 26.5444 19.8422 25.7221C19.5017 24.8999 19.4125 23.9951 19.5862 23.1221C19.7598 22.2492 20.1884 21.4474 20.8177 20.8181C21.4471 20.1887 22.2489 19.7601 23.1218 19.5865C23.9947 19.4129 24.8995 19.502 25.7218 19.8426C26.544 20.1832 27.2469 20.76 27.7413 21.5C28.2358 22.24 28.4997 23.11 28.4997 24C28.4985 25.1932 28.024 26.3371 27.1804 27.1807C26.3367 28.0244 25.1928 28.4989 23.9997 28.5Z" fill="#0053CE"/>
<path d="M24.4411 21.0449L24.1771 21.5699C24.0197 21.8847 23.9653 22.2411 24.0216 22.5886C24.078 22.936 24.2423 23.257 24.4912 23.5059C24.7401 23.7548 25.061 23.919 25.4085 23.9754C25.7559 24.0318 26.1123 23.9774 26.4271 23.8199L26.9521 23.5559C26.8572 22.9239 26.5621 22.3389 26.1101 21.8869C25.6581 21.435 25.0732 21.1399 24.4411 21.0449Z" fill="#0053CE"/>
<path d="M23.9998 30.7499C22.3844 30.7512 20.805 30.273 19.4616 29.3759L15.4033 26.6699C15.9718 28.5059 17.1131 30.1116 18.6601 31.252C20.2072 32.3925 22.0786 33.0077 24.0006 33.0077C25.9225 33.0077 27.794 32.3925 29.341 31.252C30.888 30.1116 32.0293 28.5059 32.5978 26.6699L28.5373 29.3774C27.194 30.274 25.6148 30.7517 23.9998 30.7499Z" fill="#0053CE"/>
<path d="M24 17.2499C26.1077 17.2452 28.1619 17.9128 29.8642 19.1557L32.5087 21.0794C31.9011 19.3056 30.7544 17.7659 29.2288 16.6759C27.7032 15.5858 25.875 14.9998 24 14.9998C22.1249 14.9998 20.2968 15.5858 18.7712 16.6759C17.2455 17.7659 16.0988 19.3056 15.4912 21.0794L18.1327 19.1579C19.8357 17.9141 21.891 17.2457 24 17.2499Z" fill="#0053CE"/>
</g>
<defs>
<clipPath id="clip0_847_3476">
<rect width="48" height="48" fill="white"/>
</clipPath>
</defs>
</svg>
